<svg xmlns="http://www.w3.org/2000/svg" xmlns:xlink="http://www.w3.org/1999/xlink" width="610" zoomAndPan="magnify" viewBox="0 0 457.5 332.999992" height="444" preserveAspectRatio="xMidYMid meet" version="1.2"><defs><clipPath id="93f61b5005"><path d="M 149 29.277344 L 289 29.277344 L 289 168.875 L 149 168.875 Z M 149 29.277344 "/></clipPath></defs><g id="4270726958"><g clip-rule="nonzero" clip-path="url(#93f61b5005)"><path style=" stroke:none;fill-rule:nonzero;fill:#936eff;fill-opacity:1;" d="M 230.394531 158.171875 L 226.609375 164.5625 C 223.234375 170.257812 214.796875 170.257812 211.417969 164.5625 L 207.628906 158.171875 C 204.695312 153.214844 203.222656 150.738281 200.863281 149.367188 C 198.503906 147.996094 195.535156 147.945312 189.59375 147.84375 C 180.816406 147.691406 175.316406 147.152344 170.699219 145.246094 C 162.140625 141.703125 155.339844 134.910156 151.792969 126.363281 C 149.132812 119.953125 149.132812 111.824219 149.132812 95.566406 L 149.132812 88.589844 C 149.132812 65.746094 149.132812 54.324219 154.28125 45.933594 C 157.160156 41.242188 161.117188 37.292969 165.816406 34.417969 C 174.21875 29.277344 185.65625 29.277344 208.53125 29.277344 L 229.496094 29.277344 C 252.371094 29.277344 263.808594 29.277344 272.210938 34.417969 C 276.914062 37.292969 280.863281 41.242188 283.746094 45.933594 C 288.894531 54.324219 288.894531 65.746094 288.894531 88.589844 L 288.894531 95.566406 C 288.894531 111.824219 288.894531 119.953125 286.234375 126.363281 C 282.6875 134.910156 275.886719 141.703125 267.324219 145.246094 C 262.710938 147.152344 257.210938 147.691406 248.4375 147.84375 C 242.496094 147.945312 239.523438 147.996094 237.164062 149.367188 C 234.804688 150.738281 233.335938 153.214844 230.394531 158.171875 Z M 230.394531 158.171875 "/></g><path style=" stroke:none;fill-rule:nonzero;fill:#ffffff;fill-opacity:1;" d="M 253.957031 92.078125 C 253.957031 95.933594 250.828125 99.054688 246.96875 99.054688 C 243.105469 99.054688 239.980469 95.933594 239.980469 92.078125 C 239.980469 88.226562 243.105469 85.101562 246.96875 85.101562 C 250.828125 85.101562 253.957031 88.226562 253.957031 92.078125 Z M 253.957031 92.078125 "/><path style=" stroke:none;fill-rule:nonzero;fill:#ffffff;fill-opacity:1;" d="M 226 92.078125 C 226 95.933594 222.871094 99.054688 219.011719 99.054688 C 215.152344 99.054688 212.023438 95.933594 212.023438 92.078125 C 212.023438 88.226562 215.152344 85.101562 219.011719 85.101562 C 222.871094 85.101562 226 88.226562 226 92.078125 Z M 226 92.078125 "/><path style=" stroke:none;fill-rule:nonzero;fill:#ffffff;fill-opacity:1;" d="M 198.050781 92.078125 C 198.050781 95.933594 194.921875 99.054688 191.0625 99.054688 C 187.203125 99.054688 184.074219 95.933594 184.074219 92.078125 C 184.074219 88.226562 187.203125 85.101562 191.0625 85.101562 C 194.921875 85.101562 198.050781 88.226562 198.050781 92.078125 Z M 198.050781 92.078125 "/><g style="fill:#ffffff;fill-opacity:1;"><g transform="translate(123.565731, 251.447551)"><path style="stroke:none" d="M 17.078125 -27.390625 C 15.660156 -27.390625 14.644531 -27.15625 14.03125 -26.6875 C 13.414062 -26.226562 13.109375 -25.347656 13.109375 -24.046875 L 13.109375 -8.484375 C 13.109375 -5.941406 12.476562 -3.789062 11.21875 -2.03125 C 9.96875 -0.269531 8.082031 0.609375 5.5625 0.609375 C 4.195312 0.609375 3.078125 0.316406 2.203125 -0.265625 C 1.335938 -0.847656 0.90625 -1.578125 0.90625 -2.453125 C 0.90625 -3.054688 1.101562 -3.554688 1.5 -3.953125 C 1.894531 -4.347656 2.378906 -4.546875 2.953125 -4.546875 C 3.546875 -4.546875 4.003906 -4.375 4.328125 -4.03125 C 4.660156 -3.6875 5.035156 -3.175781 5.453125 -2.5 C 5.722656 -1.945312 5.988281 -1.535156 6.25 -1.265625 C 6.507812 -0.992188 6.828125 -0.859375 7.203125 -0.859375 C 7.671875 -0.859375 8.035156 -1.128906 8.296875 -1.671875 C 8.554688 -2.222656 8.6875 -3.289062 8.6875 -4.875 L 8.6875 -24.078125 C 8.6875 -25.359375 8.347656 -26.226562 7.671875 -26.6875 C 7.003906 -27.15625 5.945312 -27.390625 4.5 -27.390625 L 4.5 -28.140625 L 17.078125 -28.140625 Z M 17.078125 -27.390625 "/></g></g><g style="fill:#ffffff;fill-opacity:1;"><g transform="translate(139.576049, 251.447551)"><path style="stroke:none" d="M 9.78125 -19.453125 C 13.882812 -19.453125 15.9375 -17.8125 15.9375 -14.53125 L 15.9375 -3.6875 C 15.9375 -2.945312 16.046875 -2.460938 16.265625 -2.234375 C 16.484375 -2.003906 16.769531 -1.890625 17.125 -1.890625 C 17.53125 -1.890625 17.910156 -2.003906 18.265625 -2.234375 C 18.617188 -2.460938 19.140625 -2.90625 19.828125 -3.5625 L 19.828125 -2.546875 C 18.785156 -1.367188 17.929688 -0.550781 17.265625 -0.09375 C 16.597656 0.351562 15.90625 0.578125 15.1875 0.578125 C 14.394531 0.578125 13.757812 0.296875 13.28125 -0.265625 C 12.8125 -0.828125 12.578125 -1.65625 12.578125 -2.75 C 11.367188 -1.601562 10.253906 -0.757812 9.234375 -0.21875 C 8.210938 0.3125 7.097656 0.578125 5.890625 0.578125 C 4.691406 0.578125 3.679688 0.128906 2.859375 -0.765625 C 2.046875 -1.671875 1.640625 -2.765625 1.640625 -4.046875 C 1.640625 -6.234375 2.800781 -7.925781 5.125 -9.125 C 7.332031 -10.300781 9.816406 -11.382812 12.578125 -12.375 L 12.578125 -13.515625 C 12.578125 -14.609375 12.5 -15.484375 12.34375 -16.140625 C 12.195312 -16.796875 11.859375 -17.320312 11.328125 -17.71875 C 10.796875 -18.113281 9.984375 -18.3125 8.890625 -18.3125 C 7.828125 -18.3125 7.035156 -18.050781 6.515625 -17.53125 C 5.992188 -17.007812 5.734375 -16.367188 5.734375 -15.609375 L 5.78125 -14.53125 C 5.78125 -14.070312 5.628906 -13.691406 5.328125 -13.390625 C 5.023438 -13.085938 4.640625 -12.9375 4.171875 -12.9375 C 3.660156 -12.9375 3.238281 -13.085938 2.90625 -13.390625 C 2.582031 -13.691406 2.421875 -14.113281 2.421875 -14.65625 C 2.421875 -16.019531 3.0625 -17.160156 4.34375 -18.078125 C 5.625 -18.992188 7.4375 -19.453125 9.78125 -19.453125 Z M 5.125 -5.125 C 5.125 -4.195312 5.414062 -3.40625 6 -2.75 C 6.582031 -2.09375 7.3125 -1.765625 8.1875 -1.765625 C 9.582031 -1.765625 11.046875 -2.445312 12.578125 -3.8125 L 12.578125 -11.265625 C 10.660156 -10.472656 9.179688 -9.78125 8.140625 -9.1875 C 7.109375 -8.601562 6.347656 -7.992188 5.859375 -7.359375 C 5.367188 -6.734375 5.125 -5.988281 5.125 -5.125 Z M 5.125 -5.125 "/></g></g><g style="fill:#ffffff;fill-opacity:1;"><g transform="translate(160.049777, 251.447551)"><path style="stroke:none" d="M 10.3125 -28.75 C 11.25 -28.75 12.054688 -28.660156 12.734375 -28.484375 C 13.421875 -28.304688 14.117188 -28.066406 14.828125 -27.765625 C 15.179688 -27.628906 15.523438 -27.503906 15.859375 -27.390625 C 16.203125 -27.285156 16.515625 -27.234375 16.796875 -27.234375 C 17.453125 -27.234375 17.96875 -27.738281 18.34375 -28.75 L 19.125 -28.75 L 19.125 -19.40625 L 18.34375 -19.40625 C 18.207031 -20.851562 17.773438 -22.171875 17.046875 -23.359375 C 16.328125 -24.546875 15.425781 -25.476562 14.34375 -26.15625 C 13.269531 -26.84375 12.117188 -27.1875 10.890625 -27.1875 C 9.554688 -27.1875 8.410156 -26.785156 7.453125 -25.984375 C 6.492188 -25.179688 6.015625 -24.207031 6.015625 -23.0625 C 6.015625 -21.71875 6.671875 -20.554688 7.984375 -19.578125 C 8.910156 -18.890625 10.207031 -18.070312 11.875 -17.125 C 13.351562 -16.21875 14.582031 -15.4375 15.5625 -14.78125 C 16.539062 -14.125 17.457031 -13.414062 18.3125 -12.65625 C 19.070312 -11.914062 19.675781 -11.066406 20.125 -10.109375 C 20.570312 -9.160156 20.796875 -8.179688 20.796875 -7.171875 C 20.796875 -5.773438 20.414062 -4.472656 19.65625 -3.265625 C 18.894531 -2.066406 17.847656 -1.117188 16.515625 -0.421875 C 15.191406 0.265625 13.738281 0.609375 12.15625 0.609375 C 11.144531 0.609375 10.25 0.519531 9.46875 0.34375 C 8.695312 0.164062 7.890625 -0.0703125 7.046875 -0.375 C 6.117188 -0.695312 5.421875 -0.859375 4.953125 -0.859375 C 4.210938 -0.859375 3.65625 -0.367188 3.28125 0.609375 L 2.546875 0.609375 L 2.546875 -8.84375 L 3.28125 -8.84375 C 3.738281 -6.414062 4.65625 -4.488281 6.03125 -3.0625 C 7.414062 -1.644531 9.203125 -0.9375 11.390625 -0.9375 C 12.941406 -0.9375 14.222656 -1.359375 15.234375 -2.203125 C 16.242188 -3.054688 16.75 -4.125 16.75 -5.40625 C 16.75 -6.0625 16.625 -6.660156 16.375 -7.203125 C 16.132812 -7.753906 15.726562 -8.34375 15.15625 -8.96875 C 14.632812 -9.507812 13.894531 -10.101562 12.9375 -10.75 C 11.988281 -11.394531 10.71875 -12.191406 9.125 -13.140625 C 7.789062 -13.960938 6.769531 -14.613281 6.0625 -15.09375 C 5.351562 -15.570312 4.820312 -15.988281 4.46875 -16.34375 C 3.070312 -17.757812 2.375 -19.460938 2.375 -21.453125 C 2.375 -22.816406 2.722656 -24.050781 3.421875 -25.15625 C 4.117188 -26.269531 5.066406 -27.144531 6.265625 -27.78125 C 7.460938 -28.425781 8.8125 -28.75 10.3125 -28.75 Z M 10.3125 -28.75 "/></g></g><g style="fill:#ffffff;fill-opacity:1;"><g transform="translate(182.652767, 251.447551)"><path style="stroke:none" d="M 9.78125 -19.453125 C 13.882812 -19.453125 15.9375 -17.8125 15.9375 -14.53125 L 15.9375 -3.6875 C 15.9375 -2.945312 16.046875 -2.460938 16.265625 -2.234375 C 16.484375 -2.003906 16.769531 -1.890625 17.125 -1.890625 C 17.53125 -1.890625 17.910156 -2.003906 18.265625 -2.234375 C 18.617188 -2.460938 19.140625 -2.90625 19.828125 -3.5625 L 19.828125 -2.546875 C 18.785156 -1.367188 17.929688 -0.550781 17.265625 -0.09375 C 16.597656 0.351562 15.90625 0.578125 15.1875 0.578125 C 14.394531 0.578125 13.757812 0.296875 13.28125 -0.265625 C 12.8125 -0.828125 12.578125 -1.65625 12.578125 -2.75 C 11.367188 -1.601562 10.253906 -0.757812 9.234375 -0.21875 C 8.210938 0.3125 7.097656 0.578125 5.890625 0.578125 C 4.691406 0.578125 3.679688 0.128906 2.859375 -0.765625 C 2.046875 -1.671875 1.640625 -2.765625 1.640625 -4.046875 C 1.640625 -6.234375 2.800781 -7.925781 5.125 -9.125 C 7.332031 -10.300781 9.816406 -11.382812 12.578125 -12.375 L 12.578125 -13.515625 C 12.578125 -14.609375 12.5 -15.484375 12.34375 -16.140625 C 12.195312 -16.796875 11.859375 -17.320312 11.328125 -17.71875 C 10.796875 -18.113281 9.984375 -18.3125 8.890625 -18.3125 C 7.828125 -18.3125 7.035156 -18.050781 6.515625 -17.53125 C 5.992188 -17.007812 5.734375 -16.367188 5.734375 -15.609375 L 5.78125 -14.53125 C 5.78125 -14.070312 5.628906 -13.691406 5.328125 -13.390625 C 5.023438 -13.085938 4.640625 -12.9375 4.171875 -12.9375 C 3.660156 -12.9375 3.238281 -13.085938 2.90625 -13.390625 C 2.582031 -13.691406 2.421875 -14.113281 2.421875 -14.65625 C 2.421875 -16.019531 3.0625 -17.160156 4.34375 -18.078125 C 5.625 -18.992188 7.4375 -19.453125 9.78125 -19.453125 Z M 5.125 -5.125 C 5.125 -4.195312 5.414062 -3.40625 6 -2.75 C 6.582031 -2.09375 7.3125 -1.765625 8.1875 -1.765625 C 9.582031 -1.765625 11.046875 -2.445312 12.578125 -3.8125 L 12.578125 -11.265625 C 10.660156 -10.472656 9.179688 -9.78125 8.140625 -9.1875 C 7.109375 -8.601562 6.347656 -7.992188 5.859375 -7.359375 C 5.367188 -6.734375 5.125 -5.988281 5.125 -5.125 Z M 5.125 -5.125 "/></g></g><g style="fill:#ffffff;fill-opacity:1;"><g transform="translate(203.126496, 251.447551)"><path style="stroke:none" d="M 25.921875 -22.078125 L 25.140625 -22.078125 C 24.953125 -23.660156 24.375 -24.832031 23.40625 -25.59375 C 22.4375 -26.363281 20.96875 -26.75 19 -26.75 L 10.109375 -26.75 L 10.109375 -15.640625 L 17.078125 -15.640625 C 18.546875 -15.640625 19.570312 -15.90625 20.15625 -16.4375 C 20.75 -16.96875 21.046875 -17.8125 21.046875 -18.96875 L 21.046875 -19.609375 L 21.78125 -19.609375 L 21.78125 -10.03125 L 21.046875 -10.03125 L 21.046875 -10.53125 C 21.046875 -11.726562 20.757812 -12.601562 20.1875 -13.15625 C 19.613281 -13.71875 18.710938 -14 17.484375 -14 L 10.109375 -14 L 10.109375 -4.09375 C 10.109375 -2.78125 10.4375 -1.890625 11.09375 -1.421875 C 11.75 -0.960938 12.773438 -0.734375 14.171875 -0.734375 L 14.171875 0 L 1.765625 0 L 1.765625 -0.734375 L 2 -0.734375 C 3.226562 -0.734375 4.148438 -0.984375 4.765625 -1.484375 C 5.378906 -1.992188 5.6875 -2.878906 5.6875 -4.140625 L 5.6875 -24.203125 C 5.6875 -25.347656 5.375 -26.164062 4.75 -26.65625 C 4.125 -27.144531 3.128906 -27.390625 1.765625 -27.390625 L 1.765625 -28.140625 L 25.640625 -28.140625 Z M 25.921875 -22.078125 "/></g></g><g style="fill:#ffffff;fill-opacity:1;"><g transform="translate(227.98143, 251.447551)"><path style="stroke:none" d="M 9.78125 -19.453125 C 13.882812 -19.453125 15.9375 -17.8125 15.9375 -14.53125 L 15.9375 -3.6875 C 15.9375 -2.945312 16.046875 -2.460938 16.265625 -2.234375 C 16.484375 -2.003906 16.769531 -1.890625 17.125 -1.890625 C 17.53125 -1.890625 17.910156 -2.003906 18.265625 -2.234375 C 18.617188 -2.460938 19.140625 -2.90625 19.828125 -3.5625 L 19.828125 -2.546875 C 18.785156 -1.367188 17.929688 -0.550781 17.265625 -0.09375 C 16.597656 0.351562 15.90625 0.578125 15.1875 0.578125 C 14.394531 0.578125 13.757812 0.296875 13.28125 -0.265625 C 12.8125 -0.828125 12.578125 -1.65625 12.578125 -2.75 C 11.367188 -1.601562 10.253906 -0.757812 9.234375 -0.21875 C 8.210938 0.3125 7.097656 0.578125 5.890625 0.578125 C 4.691406 0.578125 3.679688 0.128906 2.859375 -0.765625 C 2.046875 -1.671875 1.640625 -2.765625 1.640625 -4.046875 C 1.640625 -6.234375 2.800781 -7.925781 5.125 -9.125 C 7.332031 -10.300781 9.816406 -11.382812 12.578125 -12.375 L 12.578125 -13.515625 C 12.578125 -14.609375 12.5 -15.484375 12.34375 -16.140625 C 12.195312 -16.796875 11.859375 -17.320312 11.328125 -17.71875 C 10.796875 -18.113281 9.984375 -18.3125 8.890625 -18.3125 C 7.828125 -18.3125 7.035156 -18.050781 6.515625 -17.53125 C 5.992188 -17.007812 5.734375 -16.367188 5.734375 -15.609375 L 5.78125 -14.53125 C 5.78125 -14.070312 5.628906 -13.691406 5.328125 -13.390625 C 5.023438 -13.085938 4.640625 -12.9375 4.171875 -12.9375 C 3.660156 -12.9375 3.238281 -13.085938 2.90625 -13.390625 C 2.582031 -13.691406 2.421875 -14.113281 2.421875 -14.65625 C 2.421875 -16.019531 3.0625 -17.160156 4.34375 -18.078125 C 5.625 -18.992188 7.4375 -19.453125 9.78125 -19.453125 Z M 5.125 -5.125 C 5.125 -4.195312 5.414062 -3.40625 6 -2.75 C 6.582031 -2.09375 7.3125 -1.765625 8.1875 -1.765625 C 9.582031 -1.765625 11.046875 -2.445312 12.578125 -3.8125 L 12.578125 -11.265625 C 10.660156 -10.472656 9.179688 -9.78125 8.140625 -9.1875 C 7.109375 -8.601562 6.347656 -7.992188 5.859375 -7.359375 C 5.367188 -6.734375 5.125 -5.988281 5.125 -5.125 Z M 5.125 -5.125 "/></g></g><g style="fill:#ffffff;fill-opacity:1;"><g transform="translate(248.455158, 251.447551)"><path style="stroke:none" d="M 17.078125 -28.75 C 18.441406 -28.75 19.617188 -28.617188 20.609375 -28.359375 C 21.609375 -28.097656 22.570312 -27.765625 23.5 -27.359375 C 24.269531 -27.054688 24.765625 -26.90625 24.984375 -26.90625 C 25.304688 -26.90625 25.617188 -27.078125 25.921875 -27.421875 C 26.222656 -27.765625 26.425781 -28.207031 26.53125 -28.75 L 27.234375 -28.75 L 27.9375 -19.25 L 27.234375 -19.25 C 26.984375 -20.914062 26.375 -22.347656 25.40625 -23.546875 C 24.4375 -24.742188 23.25 -25.648438 21.84375 -26.265625 C 20.4375 -26.878906 18.957031 -27.1875 17.40625 -27.1875 C 14.207031 -27.1875 11.644531 -26.046875 9.71875 -23.765625 C 7.800781 -21.492188 6.84375 -18.050781 6.84375 -13.4375 C 6.84375 -10.707031 7.367188 -8.421875 8.421875 -6.578125 C 9.472656 -4.734375 10.847656 -3.363281 12.546875 -2.46875 C 14.253906 -1.582031 16.078125 -1.140625 18.015625 -1.140625 C 20.015625 -1.140625 21.914062 -1.644531 23.71875 -2.65625 C 25.519531 -3.664062 26.925781 -5.019531 27.9375 -6.71875 L 28.546875 -6.3125 C 25.835938 -1.695312 21.851562 0.609375 16.59375 0.609375 C 13.851562 0.609375 11.347656 -0.0195312 9.078125 -1.28125 C 6.816406 -2.550781 5.023438 -4.28125 3.703125 -6.46875 C 2.378906 -8.65625 1.71875 -11.054688 1.71875 -13.671875 C 1.71875 -16.429688 2.398438 -18.960938 3.765625 -21.265625 C 5.128906 -23.578125 6.984375 -25.398438 9.328125 -26.734375 C 11.679688 -28.078125 14.265625 -28.75 17.078125 -28.75 Z M 17.078125 -28.75 "/></g></g><g style="fill:#ffffff;fill-opacity:1;"><g transform="translate(277.89637, 251.447551)"><path style="stroke:none" d="M 7.375 -15.4375 L 7.453125 -15.4375 C 8.359375 -16.664062 9.382812 -17.640625 10.53125 -18.359375 C 11.675781 -19.085938 12.804688 -19.453125 13.921875 -19.453125 C 15.535156 -19.453125 16.757812 -18.84375 17.59375 -17.625 C 18.425781 -16.414062 18.84375 -14.921875 18.84375 -13.140625 L 18.84375 -4.375 C 18.84375 -3.34375 18.953125 -2.566406 19.171875 -2.046875 C 19.390625 -1.523438 19.707031 -1.175781 20.125 -1 C 20.550781 -0.820312 21.160156 -0.734375 21.953125 -0.734375 L 21.953125 0 L 12.453125 0 L 12.453125 -0.734375 C 13.191406 -0.734375 13.769531 -0.816406 14.1875 -0.984375 C 14.613281 -1.148438 14.9375 -1.488281 15.15625 -2 C 15.375 -2.519531 15.484375 -3.300781 15.484375 -4.34375 L 15.484375 -13.671875 C 15.484375 -14.546875 15.203125 -15.3125 14.640625 -15.96875 C 14.078125 -16.625 13.28125 -16.953125 12.25 -16.953125 C 11.394531 -16.953125 10.59375 -16.753906 9.84375 -16.359375 C 9.09375 -15.960938 8.269531 -15.316406 7.375 -14.421875 L 7.375 -4.34375 C 7.375 -3.28125 7.472656 -2.492188 7.671875 -1.984375 C 7.878906 -1.484375 8.207031 -1.148438 8.65625 -0.984375 C 9.113281 -0.816406 9.773438 -0.734375 10.640625 -0.734375 L 10.640625 0 L 1.03125 0 L 1.03125 -0.734375 C 1.757812 -0.734375 2.335938 -0.820312 2.765625 -1 C 3.191406 -1.175781 3.503906 -1.53125 3.703125 -2.0625 C 3.910156 -2.59375 4.015625 -3.363281 4.015625 -4.375 L 4.015625 -23.625 C 4.015625 -24.769531 3.835938 -25.523438 3.484375 -25.890625 C 3.128906 -26.265625 2.675781 -26.453125 2.125 -26.453125 C 1.75 -26.453125 1.382812 -26.367188 1.03125 -26.203125 L 0.78125 -26.90625 L 6.640625 -29.359375 L 7.375 -29.359375 Z M 7.375 -15.4375 "/></g></g><g style="fill:#ffffff;fill-opacity:1;"><g transform="translate(300.49936, 251.447551)"><path style="stroke:none" d="M 9.78125 -19.453125 C 13.882812 -19.453125 15.9375 -17.8125 15.9375 -14.53125 L 15.9375 -3.6875 C 15.9375 -2.945312 16.046875 -2.460938 16.265625 -2.234375 C 16.484375 -2.003906 16.769531 -1.890625 17.125 -1.890625 C 17.53125 -1.890625 17.910156 -2.003906 18.265625 -2.234375 C 18.617188 -2.460938 19.140625 -2.90625 19.828125 -3.5625 L 19.828125 -2.546875 C 18.785156 -1.367188 17.929688 -0.550781 17.265625 -0.09375 C 16.597656 0.351562 15.90625 0.578125 15.1875 0.578125 C 14.394531 0.578125 13.757812 0.296875 13.28125 -0.265625 C 12.8125 -0.828125 12.578125 -1.65625 12.578125 -2.75 C 11.367188 -1.601562 10.253906 -0.757812 9.234375 -0.21875 C 8.210938 0.3125 7.097656 0.578125 5.890625 0.578125 C 4.691406 0.578125 3.679688 0.128906 2.859375 -0.765625 C 2.046875 -1.671875 1.640625 -2.765625 1.640625 -4.046875 C 1.640625 -6.234375 2.800781 -7.925781 5.125 -9.125 C 7.332031 -10.300781 9.816406 -11.382812 12.578125 -12.375 L 12.578125 -13.515625 C 12.578125 -14.609375 12.5 -15.484375 12.34375 -16.140625 C 12.195312 -16.796875 11.859375 -17.320312 11.328125 -17.71875 C 10.796875 -18.113281 9.984375 -18.3125 8.890625 -18.3125 C 7.828125 -18.3125 7.035156 -18.050781 6.515625 -17.53125 C 5.992188 -17.007812 5.734375 -16.367188 5.734375 -15.609375 L 5.78125 -14.53125 C 5.78125 -14.070312 5.628906 -13.691406 5.328125 -13.390625 C 5.023438 -13.085938 4.640625 -12.9375 4.171875 -12.9375 C 3.660156 -12.9375 3.238281 -13.085938 2.90625 -13.390625 C 2.582031 -13.691406 2.421875 -14.113281 2.421875 -14.65625 C 2.421875 -16.019531 3.0625 -17.160156 4.34375 -18.078125 C 5.625 -18.992188 7.4375 -19.453125 9.78125 -19.453125 Z M 5.125 -5.125 C 5.125 -4.195312 5.414062 -3.40625 6 -2.75 C 6.582031 -2.09375 7.3125 -1.765625 8.1875 -1.765625 C 9.582031 -1.765625 11.046875 -2.445312 12.578125 -3.8125 L 12.578125 -11.265625 C 10.660156 -10.472656 9.179688 -9.78125 8.140625 -9.1875 C 7.109375 -8.601562 6.347656 -7.992188 5.859375 -7.359375 C 5.367188 -6.734375 5.125 -5.988281 5.125 -5.125 Z M 5.125 -5.125 "/></g></g><g style="fill:#ffffff;fill-opacity:1;"><g transform="translate(319.785539, 251.447551)"><path style="stroke:none" d="M 6.796875 -25.015625 L 7.453125 -25.015625 L 7.453125 -19 L 11.75 -19 L 11.75 -17.734375 L 7.453125 -17.734375 L 7.453125 -4.546875 C 7.453125 -3.835938 7.65625 -3.203125 8.0625 -2.640625 C 8.476562 -2.078125 9.050781 -1.796875 9.78125 -1.796875 C 10.28125 -1.796875 10.71875 -1.910156 11.09375 -2.140625 C 11.476562 -2.378906 11.890625 -2.785156 12.328125 -3.359375 L 13.140625 -3.359375 C 12.429688 -2.046875 11.664062 -1.0625 10.84375 -0.40625 C 10.03125 0.25 9.078125 0.578125 7.984375 0.578125 C 6.785156 0.578125 5.835938 0.132812 5.140625 -0.75 C 4.441406 -1.644531 4.09375 -2.851562 4.09375 -4.375 L 4.09375 -17.734375 L 1.1875 -17.734375 L 1.1875 -18.546875 C 2.582031 -19.117188 3.753906 -19.957031 4.703125 -21.0625 C 5.660156 -22.175781 6.359375 -23.492188 6.796875 -25.015625 Z M 6.796875 -25.015625 "/></g></g></g></svg>